<?xml version="1.0" encoding="UTF-8" standalone="no"?>
<!-- Generator: Adobe Illustrator 26.1.0, SVG Export Plug-In . SVG Version: 6.00 Build 0)  -->

<svg
   xmlns:dc="http://purl.org/dc/elements/1.1/"
   xmlns:cc="http://creativecommons.org/ns#"
   xmlns:rdf="http://www.w3.org/1999/02/22-rdf-syntax-ns#"
   xmlns:svg="http://www.w3.org/2000/svg"
   xmlns="http://www.w3.org/2000/svg"
   xmlns:sodipodi="http://sodipodi.sourceforge.net/DTD/sodipodi-0.dtd"
   xmlns:inkscape="http://www.inkscape.org/namespaces/inkscape"
   version="1.1"
   id="Vrstva_1"
   x="0px"
   y="0px"
   viewBox="0 0 120 130.18486"
   xml:space="preserve"
   sodipodi:docname="iso.svg"
   width="120"
   height="130.18486"
   inkscape:version="0.92.1 r15371"><metadata
     id="metadata4621"><rdf:RDF><cc:Work
         rdf:about=""><dc:format>image/svg+xml</dc:format><dc:type
           rdf:resource="http://purl.org/dc/dcmitype/StillImage" /><dc:title></dc:title></cc:Work></rdf:RDF></metadata><defs
     id="defs4619" /><sodipodi:namedview
     pagecolor="#ffffff"
     bordercolor="#666666"
     borderopacity="1"
     objecttolerance="10"
     gridtolerance="10"
     guidetolerance="10"
     inkscape:pageopacity="0"
     inkscape:pageshadow="2"
     inkscape:window-width="1600"
     inkscape:window-height="840"
     id="namedview4617"
     showgrid="false"
     fit-margin-top="0"
     fit-margin-left="0"
     fit-margin-right="0"
     fit-margin-bottom="0"
     inkscape:zoom="6.8051948"
     inkscape:cx="10.384197"
     inkscape:cy="40.205"
     inkscape:window-x="0"
     inkscape:window-y="0"
     inkscape:window-maximized="1"
     inkscape:current-layer="g4614" /><style
     type="text/css"
     id="style4573">
	.st0{fill:url(#SVGID_1_);}
	.st1{fill:#404044;}
</style><g
     id="g4614"
     transform="translate(-8.6700001,41.85486)"><linearGradient
       id="SVGID_1_"
       gradientUnits="userSpaceOnUse"
       x1="27.570601"
       y1="11.9931"
       x2="63.5709"
       y2="68.493599"
       gradientTransform="matrix(1.6192147,0,0,1.6192147,-5.3685913,-54.695233)"><stop
         offset="0"
         style="stop-color:#EC3333"
         id="stop4575" /><stop
         offset="0.2301"
         style="stop-color:#ED3D30"
         id="stop4577" /><stop
         offset="0.6247"
         style="stop-color:#EF5929"
         id="stop4579" /><stop
         offset="1"
         style="stop-color:#F17920"
         id="stop4581" /></linearGradient><path
       class="st0"
       d="m 68.678096,-41.85486 c -29.11348,0 -52.72163,23.60815 -52.72163,52.72163 0,29.11348 23.591958,52.72163 52.72163,52.72163 29.11348,0 52.721634,-23.60815 52.721634,-52.72163 0,-29.129672 -23.608154,-52.72163 -52.721634,-52.72163 z m 37.857244,26.360815 H 94.439802 c -1.165835,-3.69181 -2.590744,-7.092161 -4.226151,-10.136284 -1.182026,-2.202132 -2.49359,-4.274727 -3.934691,-6.153016 8.177034,3.384159 15.20443,9.035218 20.25638,16.2893 z M 71.965102,-34.7627 c 4.420456,1.343948 8.792336,5.408177 12.435569,12.225071 1.198218,2.2669 2.234516,4.614762 3.0927,7.043584 H 71.965102 Z m -6.590204,0 v 19.268655 H 49.862821 c 0.858184,-2.41263 1.87829,-4.776684 3.076508,-7.043584 3.643233,-6.816894 8.015113,-10.881123 12.435569,-12.225071 z m -14.313858,2.979355 c -1.473485,1.943058 -2.785049,3.99946 -3.934691,6.153016 -1.700176,3.254621 -3.108893,6.63878 -4.209958,10.136284 H 30.820857 c 5.05195,-7.254082 12.063149,-12.905141 20.240183,-16.2893 z m -20.256375,69.01093 h 12.095533 c 1.101066,3.497503 2.509783,6.897854 4.209959,10.136284 1.149642,2.153555 2.461206,4.209958 3.934691,6.153015 C 42.884006,50.132726 35.872807,44.481666 30.804665,37.227585 Z M 65.374898,56.480047 C 60.970634,55.136099 56.582562,51.088062 52.939329,44.254976 51.805879,42.117613 50.769582,39.769752 49.862821,37.211393 h 15.512077 z m 6.590204,0 V 37.211393 h 15.528269 c -0.906761,2.542167 -1.943058,4.90622 -3.0927,7.043583 -3.643233,6.833086 -8.015113,10.881123 -12.435569,12.225071 z M 86.27896,53.516884 c 1.473485,-1.943057 2.801241,-3.99946 3.934691,-6.153015 1.716368,-3.23843 3.125085,-6.638781 4.226151,-10.136284 H 106.53534 C 101.48339,44.481666 94.455994,50.132726 86.27896,53.516884 Z M 110.35668,30.637381 H 107.19921 96.204746 89.436428 71.965102 65.374898 47.88738 41.119062 30.140787 26.983318 C 24.58688,25.585431 23.064819,20.031525 22.660015,14.153775 h 7.480772 V 7.5635717 h -7.480772 c 0.404804,-5.7158278 1.862097,-11.3021185 4.323303,-16.4836054 h 3.157469 10.978275 6.768318 17.487518 6.590204 17.471326 6.768318 10.994464 3.15747 c 2.46121,5.1814869 3.9185,10.7677776 4.32331,16.4836054 h -7.48078 v 6.5902033 h 7.48078 c -0.40481,5.87775 -1.91068,11.415464 -4.32331,16.483606 z"
       id="path4584"
       inkscape:connector-curvature="0"
       style="fill:url(#SVGID_1_);stroke-width:1.61921465" /><g
       id="g4592"
       transform="matrix(1.6192147,0,0,1.6192147,-5.3685913,-54.695233)"><path
         class="st1"
         d="M 31.42,48.73 H 27.09 V 32.7 h 4.33 z"
         id="path4586"
         inkscape:connector-curvature="0"
         style="fill:#404044" /><path
         class="st1"
         d="m 41.37,48.74 c -2.48,0 -4.82,-0.87 -7.01,-2.61 l 1.62,-3.42 c 1.09,0.81 2.1,1.39 3.04,1.76 0.94,0.36 1.73,0.54 2.39,0.54 1,0 1.5,-0.36 1.5,-1.09 0,-0.46 -0.28,-0.81 -0.83,-1.02 -0.51,-0.23 -1.1,-0.44 -1.77,-0.61 -0.83,-0.23 -1.69,-0.54 -2.58,-0.92 -1.62,-0.75 -2.43,-2.03 -2.43,-3.83 0,-1.07 0.27,-1.97 0.8,-2.69 0.62,-0.78 1.38,-1.33 2.3,-1.67 0.92,-0.33 1.89,-0.5 2.93,-0.5 2.25,0 4.28,0.62 6.1,1.88 l -1.6,3.62 C 44,37 42.39,36.41 40.97,36.41 c -0.81,0 -1.21,0.3 -1.21,0.89 0,0.38 0.21,0.7 0.62,0.96 0.42,0.26 1.09,0.5 2.02,0.73 0.87,0.23 1.72,0.53 2.53,0.92 0.81,0.38 1.47,1 1.99,1.84 0.3,0.54 0.46,1.24 0.46,2.11 0,1.15 -0.29,2.08 -0.85,2.8 -0.61,0.75 -1.37,1.28 -2.28,1.6 -0.92,0.32 -1.88,0.48 -2.88,0.48 z"
         id="path4588"
         inkscape:connector-curvature="0"
         style="fill:#404044" /><path
         class="st1"
         d="m 57.54,48.74 c -2.28,0 -4.17,-0.76 -5.68,-2.29 -1.51,-1.53 -2.27,-3.45 -2.27,-5.78 0,-2.31 0.75,-4.22 2.26,-5.72 1.5,-1.51 3.4,-2.26 5.69,-2.26 2.3,0 4.2,0.76 5.7,2.27 1.5,1.51 2.25,3.42 2.25,5.71 0,2.31 -0.76,4.23 -2.27,5.77 -1.51,1.53 -3.41,2.3 -5.68,2.3 z m 0.06,-3.96 c 0.91,0 1.72,-0.37 2.41,-1.11 0.69,-0.74 1.04,-1.73 1.04,-2.98 0,-1.25 -0.35,-2.24 -1.04,-2.96 -0.69,-0.72 -1.5,-1.09 -2.41,-1.09 -0.43,0 -0.85,0.08 -1.27,0.23 -0.42,0.16 -0.81,0.4 -1.15,0.73 -0.35,0.33 -0.63,0.75 -0.84,1.26 -0.21,0.51 -0.32,1.12 -0.32,1.83 0,0.88 0.17,1.62 0.52,2.23 0.35,0.61 0.79,1.07 1.34,1.38 0.55,0.32 1.12,0.48 1.72,0.48 z"
         id="path4590"
         inkscape:connector-curvature="0"
         style="fill:#404044" /></g><g
       id="g4612"
       transform="matrix(1.6192147,0,0,1.6192147,-5.3685913,-54.695233)"><path
         class="st1"
         d="m 10.78,86.18 c 0.35,0.11 0.72,0.16 1.1,0.16 0.77,0 1.35,-0.23 1.73,-0.69 0.38,-0.46 0.57,-1.11 0.56,-1.95 -0.5,0.72 -1.28,1.08 -2.33,1.08 -0.64,0 -1.2,-0.13 -1.68,-0.39 C 9.68,84.13 9.31,83.76 9.05,83.29 8.79,82.82 8.67,82.27 8.67,81.64 c 0,-0.67 0.15,-1.26 0.46,-1.76 0.3,-0.5 0.73,-0.89 1.29,-1.16 0.55,-0.27 1.19,-0.41 1.93,-0.41 0.87,0 1.62,0.2 2.25,0.59 0.64,0.39 1.13,0.95 1.47,1.68 0.34,0.73 0.51,1.59 0.51,2.58 0,1.03 -0.19,1.94 -0.56,2.72 -0.37,0.78 -0.9,1.39 -1.59,1.81 -0.69,0.42 -1.49,0.64 -2.4,0.64 -0.54,0 -1.1,-0.08 -1.68,-0.23 C 9.77,87.95 9.28,87.75 8.86,87.5 l 0.97,-1.8 c 0.28,0.21 0.59,0.37 0.95,0.48 z M 11.4,80.7 c -0.25,0.22 -0.38,0.54 -0.38,0.95 0,0.4 0.12,0.7 0.36,0.93 0.24,0.22 0.58,0.34 1.02,0.34 0.47,0 0.83,-0.12 1.1,-0.36 0.27,-0.24 0.39,-0.56 0.39,-0.94 0.01,-0.36 -0.11,-0.66 -0.36,-0.9 -0.25,-0.24 -0.61,-0.36 -1.1,-0.36 -0.44,0.01 -0.78,0.12 -1.03,0.34 z"
         id="path4594"
         inkscape:connector-curvature="0"
         style="fill:#404044" /><path
         class="st1"
         d="m 24.36,79.6 c 0.69,0.86 1.04,2.1 1.04,3.71 0,1.61 -0.35,2.85 -1.04,3.71 -0.69,0.87 -1.68,1.3 -2.97,1.3 -1.29,0 -2.28,-0.43 -2.97,-1.3 -0.69,-0.87 -1.04,-2.1 -1.04,-3.71 0,-1.61 0.35,-2.85 1.04,-3.71 0.69,-0.86 1.68,-1.29 2.97,-1.29 1.29,0 2.28,0.43 2.97,1.29 z m -3.99,1.37 c -0.2,0.47 -0.31,1.25 -0.31,2.34 0,1.09 0.1,1.88 0.31,2.35 0.21,0.47 0.54,0.71 1.02,0.71 0.48,0 0.82,-0.24 1.03,-0.71 0.21,-0.47 0.31,-1.26 0.31,-2.35 0,-1.09 -0.11,-1.88 -0.31,-2.34 -0.21,-0.47 -0.55,-0.7 -1.03,-0.7 -0.48,0 -0.81,0.23 -1.02,0.7 z"
         id="path4596"
         inkscape:connector-curvature="0"
         style="fill:#404044" /><path
         class="st1"
         d="m 33.17,79.6 c 0.69,0.86 1.03,2.1 1.03,3.71 0,1.61 -0.34,2.85 -1.03,3.71 -0.69,0.87 -1.68,1.3 -2.97,1.3 -1.29,0 -2.29,-0.43 -2.97,-1.3 -0.69,-0.87 -1.03,-2.1 -1.03,-3.71 0,-1.61 0.34,-2.85 1.03,-3.71 0.69,-0.86 1.68,-1.29 2.97,-1.29 1.29,0 2.28,0.43 2.97,1.29 z m -4,1.37 c -0.2,0.47 -0.31,1.25 -0.31,2.34 0,1.09 0.1,1.88 0.31,2.35 0.2,0.47 0.55,0.71 1.02,0.71 0.47,0 0.82,-0.24 1.03,-0.71 0.21,-0.47 0.31,-1.26 0.31,-2.35 0,-1.09 -0.11,-1.88 -0.31,-2.34 -0.21,-0.47 -0.55,-0.7 -1.03,-0.7 -0.47,0 -0.81,0.23 -1.02,0.7 z"
         id="path4598"
         inkscape:connector-curvature="0"
         style="fill:#404044" /><path
         class="st1"
         d="M 40.44,88.32 H 37.83 V 80.46 H 35.9 v -2.14 h 4.54 z"
         id="path4600"
         inkscape:connector-curvature="0"
         style="fill:#404044" /><path
         class="st1"
         d="m 45.13,84.09 c -0.31,0 -0.59,-0.1 -0.84,-0.31 -0.25,-0.2 -0.37,-0.52 -0.37,-0.93 0,-0.42 0.12,-0.73 0.37,-0.93 0.24,-0.2 0.53,-0.3 0.85,-0.3 0.42,0 0.73,0.12 0.93,0.36 0.2,0.24 0.3,0.53 0.3,0.86 0,0.33 -0.1,0.62 -0.3,0.87 -0.21,0.25 -0.52,0.38 -0.94,0.38 z m 0,4.24 c -0.31,0 -0.59,-0.1 -0.84,-0.31 -0.25,-0.2 -0.37,-0.52 -0.37,-0.93 0,-0.42 0.12,-0.73 0.37,-0.93 0.24,-0.2 0.53,-0.3 0.85,-0.3 0.42,0 0.73,0.12 0.93,0.36 0.2,0.24 0.3,0.53 0.3,0.86 0,0.33 -0.1,0.62 -0.3,0.87 -0.21,0.25 -0.52,0.38 -0.94,0.38 z"
         id="path4602"
         inkscape:connector-curvature="0"
         style="fill:#404044" /><path
         class="st1"
         d="m 56.38,86.26 v 2.05 h -7.73 v -1.73 l 3.7,-3.68 c 0.29,-0.29 0.54,-0.58 0.72,-0.87 0.18,-0.29 0.28,-0.54 0.28,-0.75 0,-0.26 -0.11,-0.47 -0.31,-0.62 -0.21,-0.15 -0.5,-0.22 -0.87,-0.22 -0.41,0 -0.86,0.12 -1.36,0.35 -0.49,0.23 -0.98,0.55 -1.47,0.94 l -0.98,-1.94 c 1.4,-1 2.79,-1.5 4.19,-1.5 0.68,0 1.28,0.11 1.81,0.32 0.53,0.22 0.95,0.52 1.25,0.91 0.3,0.39 0.46,0.84 0.46,1.34 0,0.51 -0.17,1.04 -0.51,1.59 -0.34,0.55 -0.82,1.13 -1.43,1.73 l -2.15,2.07 h 4.4 z"
         id="path4604"
         inkscape:connector-curvature="0"
         style="fill:#404044" /><path
         class="st1"
         d="m 64.21,79.6 c 0.69,0.86 1.04,2.1 1.04,3.71 0,1.61 -0.35,2.85 -1.04,3.71 -0.69,0.87 -1.68,1.3 -2.97,1.3 -1.29,0 -2.28,-0.43 -2.97,-1.3 -0.69,-0.87 -1.04,-2.1 -1.04,-3.71 0,-1.61 0.35,-2.85 1.04,-3.71 0.69,-0.86 1.68,-1.29 2.97,-1.29 1.29,0 2.28,0.43 2.97,1.29 z m -4,1.37 c -0.2,0.47 -0.31,1.25 -0.31,2.34 0,1.09 0.1,1.88 0.31,2.35 0.21,0.47 0.54,0.71 1.02,0.71 0.48,0 0.82,-0.24 1.03,-0.71 0.21,-0.47 0.31,-1.26 0.31,-2.35 0,-1.09 -0.11,-1.88 -0.31,-2.34 -0.21,-0.47 -0.55,-0.7 -1.03,-0.7 -0.47,0 -0.81,0.23 -1.02,0.7 z"
         id="path4606"
         inkscape:connector-curvature="0"
         style="fill:#404044" /><path
         class="st1"
         d="m 71.48,88.32 h -2.61 v -7.86 h -1.93 v -2.14 h 4.54 z"
         id="path4608"
         inkscape:connector-curvature="0"
         style="fill:#404044" /><path
         class="st1"
         d="m 80.94,82.22 c 0.58,0.26 1.04,0.61 1.36,1.07 0.32,0.46 0.48,0.98 0.48,1.57 0,0.69 -0.17,1.3 -0.5,1.83 -0.33,0.52 -0.81,0.93 -1.43,1.21 -0.62,0.29 -1.34,0.43 -2.15,0.43 -0.66,0 -1.35,-0.11 -2.07,-0.34 -0.71,-0.23 -1.34,-0.53 -1.88,-0.9 l 0.97,-1.88 c 0.92,0.74 1.82,1.11 2.7,1.11 0.5,0 0.88,-0.11 1.15,-0.33 0.27,-0.22 0.41,-0.52 0.41,-0.91 0,-0.79 -0.54,-1.18 -1.61,-1.18 -1.26,0 -2.18,0 -2.74,0 v -5.57 h 6.72 v 2.1 h -4.32 v 1.42 h 0.88 c 0.76,-0.02 1.44,0.11 2.03,0.37 z"
         id="path4610"
         inkscape:connector-curvature="0"
         style="fill:#404044" /></g></g></svg>