<?xml version="1.0" encoding="UTF-8" standalone="no"?>
<!-- Generator: Adobe Illustrator 26.1.0, SVG Export Plug-In . SVG Version: 6.00 Build 0)  -->

<svg
   xmlns:dc="http://purl.org/dc/elements/1.1/"
   xmlns:cc="http://creativecommons.org/ns#"
   xmlns:rdf="http://www.w3.org/1999/02/22-rdf-syntax-ns#"
   xmlns:svg="http://www.w3.org/2000/svg"
   xmlns="http://www.w3.org/2000/svg"
   xmlns:sodipodi="http://sodipodi.sourceforge.net/DTD/sodipodi-0.dtd"
   xmlns:inkscape="http://www.inkscape.org/namespaces/inkscape"
   version="1.1"
   id="Vrstva_1"
   x="0px"
   y="0px"
   viewBox="0 0 153.54315 30"
   xml:space="preserve"
   sodipodi:docname="logo.svg"
   width="153.54315"
   height="30"
   inkscape:version="0.92.1 r15371"><metadata
     id="metadata36"><rdf:RDF><cc:Work
         rdf:about=""><dc:format>image/svg+xml</dc:format><dc:type
           rdf:resource="http://purl.org/dc/dcmitype/StillImage" /><dc:title></dc:title></cc:Work></rdf:RDF></metadata><defs
     id="defs34" /><sodipodi:namedview
     pagecolor="#ffffff"
     bordercolor="#666666"
     borderopacity="1"
     objecttolerance="10"
     gridtolerance="10"
     guidetolerance="10"
     inkscape:pageopacity="0"
     inkscape:pageshadow="2"
     inkscape:window-width="1600"
     inkscape:window-height="840"
     id="namedview32"
     showgrid="false"
     fit-margin-top="0"
     fit-margin-left="0"
     fit-margin-right="0"
     fit-margin-bottom="0"
     inkscape:zoom="0.88953023"
     inkscape:cx="120.18057"
     inkscape:cy="47.12"
     inkscape:window-x="0"
     inkscape:window-y="0"
     inkscape:window-maximized="1"
     inkscape:current-layer="Vrstva_1" /><style
     type="text/css"
     id="style2">
	.st0{fill:#404044;}
	.st1{fill:url(#SVGID_1_);}
</style><g
     id="g18"
     transform="matrix(0.35219535,0,0,0.35219535,-4.9870862,-6.81498)"><path
       class="st0"
       d="m 158.44,50.09 c 0.79,-0.54 1.9,-0.81 3.33,-0.81 1.58,0 3.17,0.27 4.79,0.81 1.61,0.54 1.82,0.64 2.6,1.01 l 10.03,-9.51 c -2.01,-1.58 -5.85,-3.6 -8.71,-4.46 -2.87,-0.86 -5.92,-1.29 -9.14,-1.29 -2.73,0 -5.25,0.47 -7.58,1.4 -2.33,0.93 -4.32,2.15 -5.97,3.66 -1.65,1.51 -2.94,3.26 -3.87,5.27 -0.14,0.29 -0.24,0.59 -0.36,0.89 -6.3,-14.73 -20.92,-25.05 -37.95,-25.05 -18.3,0 -33.82,11.92 -39.21,28.43 -1.23,-2.45 -2.76,-4.65 -4.61,-6.58 -2.37,-2.47 -5.14,-4.43 -8.33,-5.86 -3.19,-1.43 -6.61,-2.15 -10.27,-2.15 -2.73,0 -5.29,0.48 -7.69,1.45 -2.4,0.97 -4.18,1.92 -5.32,2.85 H 29.97 V 19.35 L 14.16,23.79 V 62.3 c 0,3.87 0.63,7.53 1.88,10.97 1.25,3.44 3.05,6.45 5.38,9.03 2.33,2.58 5.16,4.62 8.5,6.13 3.33,1.5 7.12,2.26 11.35,2.26 4.09,0 7.85,-0.72 11.29,-2.15 3.44,-1.43 6.42,-3.39 8.93,-5.86 1.98,-1.95 3.61,-4.19 4.9,-6.68 5.37,16.56 20.91,28.53 39.25,28.53 14.69,0 27.58,-7.69 34.89,-19.25 1.93,1.45 4.54,2.92 6.96,3.8 2.94,1.08 6.63,1.61 11.08,1.61 2.58,0 5.11,-0.45 7.58,-1.35 2.47,-0.9 4.68,-2.15 6.61,-3.76 1.94,-1.61 3.5,-3.53 4.68,-5.75 1.18,-2.22 1.77,-4.69 1.77,-7.42 0,-2.44 -0.45,-4.55 -1.35,-6.34 -0.9,-1.79 -2.08,-3.31 -3.55,-4.57 -1.47,-1.25 -3.16,-2.29 -5.05,-3.12 -1.9,-0.82 -3.89,-1.52 -5.97,-2.1 -2.51,-0.65 -4.14,-1.31 -4.89,-1.99 -0.75,-0.68 -1.13,-1.42 -1.13,-2.2 -0.01,-0.79 0.38,-1.46 1.17,-2 z M 52.39,68.11 c -0.61,1.5 -1.45,2.8 -2.53,3.87 -1.08,1.08 -2.35,1.94 -3.82,2.58 -1.47,0.64 -3.06,0.97 -4.79,0.97 -1.65,0 -3.19,-0.32 -4.62,-0.97 -1.43,-0.65 -2.67,-1.54 -3.71,-2.69 -1.04,-1.15 -1.87,-2.49 -2.47,-4.03 -0.61,-1.54 -0.91,-3.17 -0.91,-4.89 0,-1.72 0.3,-3.32 0.91,-4.79 0.61,-1.47 1.43,-2.74 2.47,-3.82 1.04,-1.08 2.27,-1.92 3.71,-2.53 1.43,-0.61 2.97,-0.91 4.62,-0.91 1.72,0 3.32,0.32 4.79,0.97 1.47,0.64 2.74,1.52 3.82,2.63 1.08,1.11 1.92,2.42 2.53,3.92 0.61,1.51 0.92,3.12 0.92,4.84 -0.01,1.73 -0.31,3.34 -0.92,4.85 z m 53.23,27.55 c -17.86,0 -32.39,-14.53 -32.39,-32.39 0,-17.86 14.53,-32.39 32.39,-32.39 17.86,0 32.39,14.53 32.39,32.39 C 138,81.13 123.47,95.66 105.62,95.66 Z M 162.47,71.6 c 0.82,0.61 1.24,1.42 1.24,2.42 0,1 -0.56,1.77 -1.67,2.31 -1.11,0.54 -2.42,0.81 -3.92,0.81 -2.3,0 -4.38,-0.3 -6.24,-0.91 -1.63,-0.53 -4.59,-2.29 -6.14,-3.4 0.69,-2.93 1.08,-5.97 1.11,-9.1 2.54,2.56 5.96,4.49 10.29,5.77 2.74,0.79 4.51,1.49 5.33,2.1 z"
       id="path4"
       inkscape:connector-curvature="0"
       style="fill:#404044" /><path
       class="st0"
       d="m 206.3,35.85 c -3.87,0 -7.06,0.36 -9.57,1.07 -2.51,0.72 -5.92,2.14 -6.93,2.72 l -1.72,13.2 c 2.47,-1.25 4.56,-1.98 6.49,-2.52 1.93,-0.54 4.12,-0.81 6.56,-0.81 3.23,0 5.57,0.68 7.04,2.04 1.47,1.36 2.2,3.19 2.2,5.48 v 2.37 c -1.36,-0.5 -2.85,-0.93 -4.46,-1.29 -1.61,-0.36 -3.46,-0.54 -5.54,-0.54 -2.58,0 -4.97,0.41 -7.15,1.24 -2.19,0.82 -4.07,1.95 -5.65,3.39 -1.58,1.44 -2.81,3.16 -3.71,5.16 -0.9,2.01 -1.34,4.23 -1.34,6.67 0,5.38 1.45,9.5 4.36,12.37 2.9,2.87 6.65,4.3 11.24,4.3 3.15,0 5.7,-0.65 7.63,-1.94 1.94,-1.29 3.41,-2.65 4.41,-4.09 h 0.21 v 4.41 h 15.92 V 55.31 c 0,-6.45 -1.79,-11.31 -5.38,-14.57 -3.57,-3.26 -8.45,-4.89 -14.61,-4.89 z m 4.08,39.46 c -0.57,0.58 -1.42,1.09 -2.53,1.56 -1.11,0.47 -2.35,0.7 -3.71,0.7 -1.65,0 -3.01,-0.36 -4.09,-1.08 -1.08,-0.71 -1.61,-1.9 -1.61,-3.55 0,-1.65 0.52,-2.87 1.56,-3.66 1.04,-0.79 2.49,-1.18 4.36,-1.18 2.08,0 4.09,0.36 6.02,1.07 z"
       id="path6"
       inkscape:connector-curvature="0"
       style="fill:#404044" /><polygon
       class="st0"
       points="236.08,89.08 252,89.08 252,19.35 236.08,23.78 "
       id="polygon8"
       style="fill:#404044" /><path
       class="st0"
       d="m 283.45,73.27 c -1.18,-1.36 -1.77,-2.9 -1.77,-4.62 V 50.79 h 10.54 V 36.92 H 281.68 V 22.8 l -15.81,4.43 v 9.68 h -4.95 l -3.47,13.87 h 8.42 v 19.36 c 0,3.94 0.56,7.22 1.67,9.84 1.11,2.62 2.71,4.72 4.79,6.29 2.08,1.58 4.66,2.71 7.74,3.39 2.57,0.57 5.42,0.9 8.54,1 l 4.66,-15.35 h -3.62 c -2.95,0 -5.01,-0.68 -6.2,-2.04 z"
       id="path10"
       inkscape:connector-curvature="0"
       style="fill:#404044" /><path
       class="st0"
       d="m 345.74,47.51 c -1.58,-2.4 -3.46,-4.46 -5.64,-6.18 -2.19,-1.72 -4.64,-3.07 -7.37,-4.03 -2.73,-0.97 -5.59,-1.45 -8.6,-1.45 -3.8,0 -7.35,0.74 -10.65,2.2 -3.3,1.47 -6.18,3.46 -8.66,5.97 -2.47,2.51 -4.41,5.45 -5.81,8.82 -1.4,3.37 -2.1,6.99 -2.1,10.86 0,3.66 0.68,7.13 2.04,10.43 1.36,3.3 3.26,6.17 5.7,8.6 2.44,2.44 5.34,4.37 8.71,5.81 3.37,1.43 7.1,2.15 11.18,2.15 4.52,0 8.78,-0.79 12.8,-2.37 4.01,-1.58 7.28,-3.51 9.79,-5.81 -1.22,-1.79 -2.47,-3.6 -3.76,-5.43 -1.29,-1.83 -2.55,-3.64 -3.77,-5.43 -2.01,1.51 -4.23,2.71 -6.67,3.6 -2.44,0.9 -4.91,1.34 -7.42,1.34 -1.87,0 -3.59,-0.23 -5.16,-0.7 -1.58,-0.47 -2.94,-1.24 -4.09,-2.31 0,0 -0.19,-0.13 -0.49,-0.39 L 349.38,55.4 c -0.84,-2.85 -2.06,-5.48 -3.64,-7.89 z m -31,24.56 c -1.3,-1.64 -2.96,-4.73 -2.96,-9.9 0,-3.71 1.54,-7.25 3.58,-9.55 2.04,-2.29 4.82,-3.44 8.34,-3.44 1.43,0 2.83,0.36 4.19,1.08 1.36,0.72 2.22,1.58 2.58,2.58 z"
       id="path12"
       inkscape:connector-curvature="0"
       style="fill:#404044" /><path
       class="st0"
       d="m 385.83,74.4 c -1.65,0.54 -3.33,0.81 -5.05,0.81 -3.44,0 -6.27,-1.13 -8.5,-3.39 -2.22,-2.26 -3.33,-5.11 -3.33,-8.55 0,-1.72 0.3,-3.31 0.91,-4.79 0.61,-1.47 1.43,-2.74 2.47,-3.82 1.04,-1.08 2.27,-1.92 3.71,-2.53 1.43,-0.61 3.01,-0.91 4.73,-0.91 1.43,0 2.87,0.25 4.3,0.75 0.51,0.18 1,0.38 1.46,0.61 0.49,0.24 0.95,0.51 1.38,0.8 l 10.93,-11.31 c -2.37,-2.01 -5.11,-3.55 -8.23,-4.62 -3.12,-1.07 -6.4,-1.61 -9.84,-1.61 -3.8,0 -7.38,0.74 -10.75,2.2 -3.37,1.47 -6.33,3.48 -8.87,6.02 -2.54,2.55 -4.57,5.47 -6.08,8.76 -1.51,3.3 -2.26,6.77 -2.26,10.43 0,3.66 0.68,7.13 2.04,10.43 1.36,3.3 3.24,6.22 5.64,8.77 2.4,2.55 5.31,4.55 8.71,6.02 3.4,1.47 7.15,2.2 11.24,2.2 3.66,0 7.2,-0.65 10.65,-1.94 3.44,-1.29 6.38,-3.05 8.82,-5.27 l -9.89,-11.29 c -1.15,0.96 -2.55,1.69 -4.19,2.23 z"
       id="path14"
       inkscape:connector-curvature="0"
       style="fill:#404044" /><path
       class="st0"
       d="m 445.51,40.52 c -3.08,-3.12 -7.1,-4.68 -12.04,-4.68 -1.65,0 -3.12,0.18 -4.41,0.54 -1.29,0.36 -2.42,0.81 -3.39,1.34 -0.97,0.54 -1.81,1.13 -2.53,1.77 -0.72,0.65 -1.33,1.26 -1.83,1.83 h -0.22 V 19.35 l -15.92,4.44 v 65.29 h 15.92 v -37.1 c 0.72,-0.5 1.61,-0.93 2.69,-1.29 1.08,-0.36 2.33,-0.54 3.76,-0.54 2.29,0 3.98,0.61 5.05,1.83 1.08,1.22 1.61,2.8 1.61,4.73 v 32.37 h 15.92 V 53.8 c 0.02,-5.73 -1.53,-10.16 -4.61,-13.28 z"
       id="path16"
       inkscape:connector-curvature="0"
       style="fill:#404044" /></g><linearGradient
     id="SVGID_1_"
     gradientUnits="userSpaceOnUse"
     x1="99.307899"
     y1="56.02"
     x2="130.64059"
     y2="92.0196"
     gradientTransform="matrix(0.35219535,0,0,0.35219535,-4.9870862,-6.81498)"><stop
       offset="0"
       style="stop-color:#EC3333"
       id="stop20" /><stop
       offset="0.2301"
       style="stop-color:#ED3D30"
       id="stop22" /><stop
       offset="0.6247"
       style="stop-color:#EF5929"
       id="stop24" /><stop
       offset="1"
       style="stop-color:#F17920"
       id="stop26" /></linearGradient><path
     class="st1"
     d="m 32.211787,10.999061 c 2.465367,0 4.469359,2.003991 4.469359,4.469359 0,2.465367 -2.003992,4.469359 -4.469359,4.469359 -2.465367,0 -4.469359,-2.003992 -4.469359,-4.469359 -0.0035,-2.465368 2.003992,-4.469359 4.469359,-4.469359 m 0,-5.001174 c -5.230101,0 -9.470533,4.240432 -9.470533,9.470533 0,5.230101 4.240432,9.467011 9.470533,9.467011 5.230101,0 9.470533,-4.240432 9.470533,-9.467011 -0.0035,-5.230101 -4.240432,-9.470533 -9.470533,-9.470533 z"
     id="path29"
     inkscape:connector-curvature="0"
     style="fill:url(#SVGID_1_);stroke-width:0.35219535" /></svg>